<svg xmlns="http://www.w3.org/2000/svg" viewBox="507 90 678 339" preserveAspectRatio="xMidYMid slice">
  <rect width="1000" height="500" fill="#0D0D0D"/>
  <g fill="#2a2a2a" stroke="#3a3a3a" stroke-width="0.5">
    <path d="M33.3,52.8 L111.1,55.6 L166.7,61.1 L236.1,47.2 L291.7,47.2 L319.4,61.1 L355.6,119.4 L355.6,119.4 L316.7,127.8 L305.6,136.1 L291.7,152.8 L277.8,180.6 L258.3,205.6 L269.4,225.0 L286.1,227.8 L288.9,225.0 L269.4,225.0 L258.3,205.6 L236.1,197.2 L208.3,194.4 L197.2,186.1 L175.0,161.1 L166.7,155.6 L155.6,147.2 L155.6,116.7 L133.3,100.0 L111.1,86.1 L69.4,83.3 L41.7,69.4 L33.3,52.8 Z" /><path d="M277.8,227.8 L286.1,227.8 L294.4,219.4 L325.0,219.4 L336.1,230.6 L355.6,238.9 L361.1,250.0 L366.7,255.6 L402.8,266.7 L402.8,277.8 L391.7,294.4 L388.9,305.6 L383.3,313.9 L377.8,313.9 L366.7,327.8 L355.6,341.7 L341.7,355.6 L327.8,366.7 L319.4,377.8 L311.1,388.9 L305.6,397.2 L300.0,388.9 L305.6,366.7 L313.9,347.2 L316.7,327.8 L311.1,311.1 L305.6,300.0 L291.7,288.9 L283.3,272.2 L277.8,227.8 Z" /><path d="M475.0,147.2 L477.8,133.3 L475.0,127.8 L494.4,127.8 L500.0,122.2 L516.7,127.8 L522.2,119.4 L527.8,119.4 L536.1,122.2 L541.7,119.4 L547.2,116.7 L552.8,116.7 L561.1,116.7 L572.2,125.0 L583.3,122.2 L583.3,83.3 L569.4,69.4 L561.1,61.1 L541.7,55.6 L533.3,69.4 L525.0,83.3 L513.9,88.9 L511.1,105.6 L505.6,108.3 L494.4,108.3 L486.1,116.7 L477.8,127.8 L475.0,147.2 Z" /><path d="M513.9,88.9 L522.2,88.9 L527.8,86.1 L530.6,88.9 L527.8,91.7 L533.3,94.4 L527.8,94.4 L522.2,88.9 L513.9,77.8 L513.9,77.8 L519.4,77.8 L522.2,75.0 L522.2,69.4 L533.3,69.4 L541.7,55.6 L550.0,55.6 L555.6,58.3 L569.4,55.6 L577.8,55.6 L583.3,61.1 L583.3,72.2 L577.8,83.3 L569.4,83.3 L561.1,83.3 L555.6,72.2 L550.0,58.3 L541.7,61.1 L536.1,69.4 L533.3,75.0 L527.8,83.3 L513.9,88.9 Z" /><path d="M452.8,208.3 L452.8,191.7 L463.9,172.2 L486.1,150.0 L527.8,147.2 L541.7,147.2 L583.3,161.1 L591.7,163.9 L602.8,172.2 L616.7,216.7 L622.2,216.7 L619.4,216.7 L641.7,216.7 L622.2,219.4 L619.4,219.4 L613.9,219.4 L613.9,244.4 L611.1,263.9 L611.1,283.3 L597.2,297.2 L588.9,305.6 L583.3,319.4 L577.8,333.3 L572.2,344.4 L550.0,344.4 L541.7,333.3 L533.3,319.4 L527.8,305.6 L525.0,263.9 L525.0,238.9 L525.0,222.2 L508.3,238.9 L502.8,236.1 L491.7,236.1 L486.1,236.1 L477.8,236.1 L466.7,227.8 L458.3,222.2 L452.8,208.3 Z" /><path d="M572.2,133.3 L583.3,122.2 L597.2,133.3 L597.2,147.2 L602.8,150.0 L600.0,163.9 L608.3,172.2 L619.4,216.7 L641.7,216.7 L658.3,188.9 L669.4,188.9 L680.6,186.1 L688.9,188.9 L700.0,188.9 L702.8,208.3 L702.8,227.8 L722.2,211.1 L736.1,188.9 L744.4,188.9 L750.0,188.9 L769.4,205.6 L777.8,238.9 L788.9,247.2 L788.9,255.6 L797.2,266.7 L805.6,272.2 L819.4,272.2 L833.3,263.9 L833.3,238.9 L805.6,208.3 L800.0,205.6 L791.7,194.4 L788.9,188.9 L797.2,188.9 L805.6,188.9 L819.4,188.9 L833.3,180.6 L833.3,166.7 L847.2,155.6 L858.3,152.8 L861.1,158.3 L861.1,158.3 L861.1,133.3 L869.4,116.7 L877.8,97.2 L888.9,97.2 L894.4,111.1 L888.9,125.0 L875.0,116.7 L866.7,116.7 L861.1,133.3 L861.1,152.8 L852.8,152.8 L847.2,152.8 L838.9,158.3 L833.3,166.7 L819.4,188.9 L805.6,188.9 L797.2,188.9 L791.7,194.4 L777.8,208.3 L769.4,205.6 L755.6,188.9 L744.4,188.9 L736.1,188.9 L722.2,172.2 L708.3,152.8 L702.8,144.4 L694.4,133.3 L680.6,133.3 L666.7,133.3 L652.8,133.3 L638.9,133.3 L625.0,133.3 L611.1,133.3 L602.8,133.3 L594.4,133.3 L583.3,122.2 L572.2,133.3 Z" /><path d="M583.3,61.1 L611.1,61.1 L652.8,61.1 L694.4,47.2 L750.0,33.3 L777.8,38.9 L833.3,41.7 L888.9,47.2 L944.4,55.6 L986.1,61.1 L994.4,61.1 L986.1,69.4 L966.7,72.2 L944.4,83.3 L930.6,83.3 L916.7,83.3 L902.8,97.2 L888.9,97.2 L877.8,97.2 L869.4,116.7 L861.1,111.1 L847.2,97.2 L833.3,97.2 L819.4,102.8 L805.6,105.6 L791.7,105.6 L777.8,105.6 L763.9,105.6 L750.0,97.2 L736.1,97.2 L722.2,83.3 L708.3,61.1 L688.9,61.1 L672.2,61.1 L652.8,61.1 L630.6,61.1 L611.1,61.1 L597.2,61.1 L583.3,61.1 Z" /><path d="M816.7,311.1 L819.4,341.7 L827.8,344.4 L838.9,344.4 L850.0,344.4 L855.6,344.4 L861.1,341.7 L866.7,338.9 L872.2,338.9 L877.8,344.4 L883.3,350.0 L888.9,350.0 L894.4,355.6 L900.0,355.6 L905.6,358.3 L911.1,355.6 L916.7,352.8 L922.2,327.8 L925.0,319.4 L922.2,311.1 L916.7,311.1 L911.1,305.6 L905.6,300.0 L900.0,288.9 L888.9,288.9 L877.8,288.9 L866.7,288.9 L861.1,288.9 L855.6,294.4 L850.0,305.6 L844.4,311.1 L838.9,311.1 L833.3,305.6 L822.2,311.1 L816.7,311.1 Z" /><path d="M977.8,344.4 L980.6,350.0 L986.1,355.6 L991.7,355.6 L994.4,355.6 L994.4,361.1 L986.1,366.7 L980.6,372.2 L972.2,377.8 L966.7,377.8 L966.7,372.2 L972.2,366.7 L977.8,361.1 L983.3,355.6 L988.9,350.0 L988.9,344.4 L983.3,344.4 L977.8,344.4 Z" /><path d="M355.6,27.8 L388.9,22.2 L430.6,19.4 L450.0,36.1 L444.4,55.6 L416.7,69.4 L388.9,69.4 L375.0,61.1 L355.6,50.0 L355.6,27.8 Z" /><path d="M861.1,163.9 L863.9,161.1 L866.7,155.6 L869.4,152.8 L875.0,152.8 L877.8,150.0 L880.6,150.0 L880.6,147.2 L877.8,144.4 L875.0,138.9 L877.8,136.1 L883.3,136.1 L888.9,136.1 L891.7,136.1 L894.4,130.6 L897.2,127.8 L900.0,127.8 L900.0,133.3 L894.4,138.9 L888.9,144.4 L886.1,150.0 L880.6,152.8 L875.0,155.6 L869.4,158.3 L866.7,158.3 L863.9,161.1 L861.1,163.9 Z" /><path d="M486.1,111.1 L488.9,108.3 L491.7,102.8 L486.1,100.0 L483.3,97.2 L486.1,94.4 L494.4,91.7 L500.0,88.9 L505.6,91.7 L505.6,105.6 L500.0,108.3 L494.4,108.3 L488.9,108.3 L486.1,111.1 Z" /><path d="M777.8,238.9 L788.9,247.2 L794.4,255.6 L788.9,266.7 L800.0,272.2 L805.6,272.2 L819.4,272.2 L833.3,263.9 L833.3,238.9 L819.4,236.1 L805.6,236.1 L791.7,222.2 L788.9,222.2 L788.9,236.1 L777.8,238.9 Z" /><path d="M763.9,236.1 L777.8,238.9 L788.9,247.2 L794.4,255.6 L788.9,266.7 L800.0,272.2 L805.6,272.2 L819.4,272.2 L833.3,277.8 L847.2,277.8 L861.1,272.2 L875.0,263.9 L888.9,272.2 L902.8,272.2 L888.9,277.8 L875.0,277.8 L861.1,277.8 L847.2,277.8 L833.3,277.8 L819.4,277.8 L805.6,277.8 L791.7,272.2 L777.8,263.9 L763.9,250.0 L763.9,236.1 Z" /><path d="M827.8,227.8 L833.3,227.8 L838.9,227.8 L844.4,216.7 L844.4,205.6 L838.9,200.0 L833.3,205.6 L827.8,216.7 L827.8,227.8 Z" /><path d="M672.2,188.9 L688.9,188.9 L700.0,188.9 L702.8,208.3 L702.8,227.8 L716.7,227.8 L722.2,222.2 L722.2,211.1 L722.2,200.0 L722.2,188.9 L730.6,188.9 L744.4,188.9 L750.0,188.9 L755.6,188.9 L750.0,172.2 L736.1,172.2 L722.2,172.2 L708.3,172.2 L694.4,172.2 L680.6,172.2 L672.2,172.2 L672.2,188.9 Z" /><path d="M722.2,222.2 L725.0,222.2 L727.8,222.2 L727.8,227.8 L725.0,233.3 L722.2,233.3 L722.2,227.8 L722.2,222.2 Z" /><path d="M622.2,283.3 L630.6,288.9 L638.9,294.4 L638.9,305.6 L633.3,316.7 L622.2,322.2 L622.2,311.1 L622.2,300.0 L622.2,288.9 L622.2,283.3 Z" /><path d="M33.3,83.3 L50.0,83.3 L69.4,83.3 L83.3,83.3 L97.2,83.3 L111.1,86.1 L125.0,88.9 L125.0,83.3 L111.1,77.8 L88.9,77.8 L77.8,83.3 L61.1,88.9 L50.0,91.7 L41.7,83.3 L33.3,77.8 L33.3,83.3 Z" /><path d="M255.6,205.6 L263.9,211.1 L269.4,225.0 L286.1,227.8 L283.3,225.0 L272.2,225.0 L269.4,225.0 L258.3,211.1 L255.6,205.6 Z" /><path d="M475.0,147.2 L477.8,133.3 L475.0,127.8 L494.4,127.8 L500.0,136.1 L508.3,144.4 L500.0,147.2 L494.4,147.2 L486.1,147.2 L475.0,147.2 Z" /><path d="M519.4,127.8 L533.3,127.8 L538.9,133.3 L541.7,138.9 L544.4,144.4 L541.7,150.0 L536.1,144.4 L533.3,138.9 L533.3,127.8 L519.4,127.8 Z" /><path d="M536.1,122.2 L541.7,119.4 L547.2,116.7 L552.8,122.2 L561.1,127.8 L566.7,133.3 L572.2,138.9 L566.7,138.9 L561.1,138.9 L555.6,133.3 L550.0,133.3 L544.4,127.8 L536.1,122.2 Z" /><path d="M572.2,138.9 L583.3,136.1 L597.2,133.3 L611.1,144.4 L616.7,147.2 L611.1,150.0 L600.0,150.0 L588.9,150.0 L577.8,147.2 L572.2,144.4 L572.2,138.9 Z" /><path d="M602.8,172.2 L608.3,186.1 L611.1,208.3 L619.4,216.7 L622.2,216.7 L641.7,216.7 L658.3,188.9 L652.8,183.3 L655.6,183.3 L655.6,177.8 L650.0,183.3 L644.4,183.3 L638.9,177.8 L633.3,172.2 L627.8,172.2 L622.2,166.7 L616.7,166.7 L605.6,161.1 L602.8,172.2 Z" /><path d="M622.2,144.4 L638.9,133.3 L652.8,133.3 L666.7,133.3 L680.6,144.4 L688.9,150.0 L694.4,144.4 L700.0,144.4 L694.4,155.6 L688.9,172.2 L672.2,188.9 L661.1,188.9 L655.6,183.3 L644.4,177.8 L638.9,177.8 L633.3,172.2 L622.2,166.7 L616.7,155.6 L622.2,144.4 Z" /><path d="M652.8,133.3 L666.7,133.3 L680.6,133.3 L694.4,133.3 L708.3,138.9 L722.2,138.9 L716.7,150.0 L708.3,152.8 L694.4,144.4 L688.9,150.0 L680.6,144.4 L666.7,144.4 L652.8,138.9 L652.8,133.3 Z" />
  </g>
  
  <!-- Grid lines -->
  <g stroke="#1e1e1e" stroke-width="0.4" opacity="0.6">
    <!-- Longitude lines every 30 degrees -->
    <line x1="83.3" y1="0" x2="83.3" y2="500"/>
    <line x1="166.7" y1="0" x2="166.7" y2="500"/>
    <line x1="250.0" y1="0" x2="250.0" y2="500"/>
    <line x1="333.3" y1="0" x2="333.3" y2="500"/>
    <line x1="416.7" y1="0" x2="416.7" y2="500"/>
    <line x1="500.0" y1="0" x2="500.0" y2="500"/>
    <line x1="583.3" y1="0" x2="583.3" y2="500"/>
    <line x1="666.7" y1="0" x2="666.7" y2="500"/>
    <line x1="750.0" y1="0" x2="750.0" y2="500"/>
    <line x1="833.3" y1="0" x2="833.3" y2="500"/>
    <line x1="916.7" y1="0" x2="916.7" y2="500"/>
    <!-- Latitude lines every 30 degrees -->
    <line x1="0" y1="83.3" x2="1000" y2="83.3"/>
    <line x1="0" y1="166.7" x2="1000" y2="166.7"/>
    <line x1="0" y1="250.0" x2="1000" y2="250.0"/>
    <line x1="0" y1="333.3" x2="1000" y2="333.3"/>
    <line x1="0" y1="416.7" x2="1000" y2="416.7"/>
  </g>

  <!-- Equator -->
  <line x1="0" y1="250" x2="1000" y2="250" stroke="#2a2a2a" stroke-width="0.8"/>
  
  <!-- Chengdu marker -->
  <circle cx="789.1" cy="165.1" r="12" fill="#F5C400" opacity="0.15"/>
  <circle cx="789.1" cy="165.1" r="6" fill="#F5C400" opacity="0.4"/>
  <circle cx="789.1" cy="165.1" r="3" fill="#F5C400"/>
  
  <!-- Melbourne marker -->
  <circle cx="902.7" cy="355.0" r="12" fill="#F5C400" opacity="0.15"/>
  <circle cx="902.7" cy="355.0" r="6" fill="#F5C400" opacity="0.4"/>
  <circle cx="902.7" cy="355.0" r="3" fill="#F5C400"/>
  
  <!-- Connection arc (approximate) -->
  <path d="M789.1,165.1 Q845.9,125.1 902.7,355.0" 
        fill="none" stroke="#F5C400" stroke-width="1" stroke-dasharray="4,4" opacity="0.4"/>

</svg>